<?xml version="1.0" encoding="UTF-8" standalone="no"?>
<!DOCTYPE svg PUBLIC "-//W3C//DTD SVG 1.1//EN"
 "http://www.w3.org/Graphics/SVG/1.1/DTD/svg11.dtd">
<!-- Generated by graphviz version 2.50.0 (20211209.0339)
 -->
<!-- Title: snakemake_dag Pages: 1 -->
<svg width="836pt" height="332pt"
 viewBox="0.00 0.00 836.48 332.00" xmlns="http://www.w3.org/2000/svg" xmlns:xlink="http://www.w3.org/1999/xlink">
<g id="graph0" class="graph" transform="scale(1 1) rotate(0) translate(4 328)">
<title>snakemake_dag</title>
<polygon fill="white" stroke="transparent" points="-4,4 -4,-328 832.48,-328 832.48,4 -4,4"/>
<!-- 0 -->
<g id="node1" class="node">
<title>0</title>
<path fill="none" stroke="#566bd8" stroke-width="2" d="M411.48,-36C411.48,-36 381.48,-36 381.48,-36 375.48,-36 369.48,-30 369.48,-24 369.48,-24 369.48,-12 369.48,-12 369.48,-6 375.48,0 381.48,0 381.48,0 411.48,0 411.48,0 417.48,0 423.48,-6 423.48,-12 423.48,-12 423.48,-24 423.48,-24 423.48,-30 417.48,-36 411.48,-36"/>
<text text-anchor="middle" x="396.48" y="-15.5" font-family="sans" font-size="10.00">all</text>
</g>
<!-- 1 -->
<g id="node2" class="node">
<title>1</title>
<path fill="none" stroke="#bed856" stroke-width="2" d="M669.48,-324C669.48,-324 639.48,-324 639.48,-324 633.48,-324 627.48,-318 627.48,-312 627.48,-312 627.48,-300 627.48,-300 627.48,-294 633.48,-288 639.48,-288 639.48,-288 669.48,-288 669.48,-288 675.48,-288 681.48,-294 681.48,-300 681.48,-300 681.48,-312 681.48,-312 681.48,-318 675.48,-324 669.48,-324"/>
<text text-anchor="middle" x="654.48" y="-303.5" font-family="sans" font-size="10.00">fastp</text>
</g>
<!-- 1&#45;&gt;0 -->
<g id="edge6" class="edge">
<title>1&#45;&gt;0</title>
<path fill="none" stroke="grey" stroke-width="2" d="M627.44,-304.22C514.95,-300.33 86.15,-279.13 6.48,-180 -14.53,-153.87 23.26,-78.04 30.48,-72 79.84,-30.72 276.32,-21.59 359.24,-19.57"/>
<polygon fill="grey" stroke="grey" stroke-width="2" points="359.55,-23.07 369.47,-19.35 359.4,-16.07 359.55,-23.07"/>
</g>
<!-- 3 -->
<g id="node4" class="node">
<title>3</title>
<path fill="none" stroke="#56d873" stroke-width="2" d="M384.48,-252C384.48,-252 354.48,-252 354.48,-252 348.48,-252 342.48,-246 342.48,-240 342.48,-240 342.48,-228 342.48,-228 342.48,-222 348.48,-216 354.48,-216 354.48,-216 384.48,-216 384.48,-216 390.48,-216 396.48,-222 396.48,-228 396.48,-228 396.48,-240 396.48,-240 396.48,-246 390.48,-252 384.48,-252"/>
<text text-anchor="middle" x="369.48" y="-231.5" font-family="sans" font-size="10.00">STAR</text>
</g>
<!-- 1&#45;&gt;3 -->
<g id="edge12" class="edge">
<title>1&#45;&gt;3</title>
<path fill="none" stroke="grey" stroke-width="2" d="M627.41,-298.35C576.16,-285.76 464.88,-258.43 406.67,-244.14"/>
<polygon fill="grey" stroke="grey" stroke-width="2" points="407.33,-240.69 396.78,-241.71 405.66,-247.49 407.33,-240.69"/>
</g>
<!-- 4 -->
<g id="node5" class="node">
<title>4</title>
<path fill="none" stroke="#70d856" stroke-width="2" d="M724.48,-180C724.48,-180 694.48,-180 694.48,-180 688.48,-180 682.48,-174 682.48,-168 682.48,-168 682.48,-156 682.48,-156 682.48,-150 688.48,-144 694.48,-144 694.48,-144 724.48,-144 724.48,-144 730.48,-144 736.48,-150 736.48,-156 736.48,-156 736.48,-168 736.48,-168 736.48,-174 730.48,-180 724.48,-180"/>
<text text-anchor="middle" x="709.48" y="-159.5" font-family="sans" font-size="10.00">fastqc</text>
</g>
<!-- 1&#45;&gt;4 -->
<g id="edge13" class="edge">
<title>1&#45;&gt;4</title>
<path fill="none" stroke="grey" stroke-width="2" d="M661.11,-287.87C670.57,-263.46 688.01,-218.43 699.16,-189.64"/>
<polygon fill="grey" stroke="grey" stroke-width="2" points="702.47,-190.78 702.82,-180.19 695.94,-188.25 702.47,-190.78"/>
</g>
<!-- 5 -->
<g id="node6" class="node">
<title>5</title>
<path fill="none" stroke="#56a2d8" stroke-width="2" d="M816.48,-180C816.48,-180 766.48,-180 766.48,-180 760.48,-180 754.48,-174 754.48,-168 754.48,-168 754.48,-156 754.48,-156 754.48,-150 760.48,-144 766.48,-144 766.48,-144 816.48,-144 816.48,-144 822.48,-144 828.48,-150 828.48,-156 828.48,-156 828.48,-168 828.48,-168 828.48,-174 822.48,-180 816.48,-180"/>
<text text-anchor="middle" x="791.48" y="-159.5" font-family="sans" font-size="10.00">fastqscreen</text>
</g>
<!-- 1&#45;&gt;5 -->
<g id="edge14" class="edge">
<title>1&#45;&gt;5</title>
<path fill="none" stroke="grey" stroke-width="2" d="M671,-287.87C695.17,-262.82 740.29,-216.05 767.93,-187.41"/>
<polygon fill="grey" stroke="grey" stroke-width="2" points="770.47,-189.82 774.89,-180.19 765.43,-184.96 770.47,-189.82"/>
</g>
<!-- 10 -->
<g id="node11" class="node">
<title>10</title>
<path fill="none" stroke="#56d88a" stroke-width="2" d="M513.48,-108C513.48,-108 483.48,-108 483.48,-108 477.48,-108 471.48,-102 471.48,-96 471.48,-96 471.48,-84 471.48,-84 471.48,-78 477.48,-72 483.48,-72 483.48,-72 513.48,-72 513.48,-72 519.48,-72 525.48,-78 525.48,-84 525.48,-84 525.48,-96 525.48,-96 525.48,-102 519.48,-108 513.48,-108"/>
<text text-anchor="middle" x="498.48" y="-87.5" font-family="sans" font-size="10.00">multiqc</text>
</g>
<!-- 1&#45;&gt;10 -->
<g id="edge23" class="edge">
<title>1&#45;&gt;10</title>
<path fill="none" stroke="grey" stroke-width="2" d="M657.72,-287.85C662.72,-255.91 668.59,-186.7 635.48,-144 629.02,-135.67 573.82,-116.02 535.5,-103.12"/>
<polygon fill="grey" stroke="grey" stroke-width="2" points="536.27,-99.69 525.67,-99.84 534.05,-106.33 536.27,-99.69"/>
</g>
<!-- 2 -->
<g id="node3" class="node">
<title>2</title>
<path fill="none" stroke="#d8b456" stroke-width="2" d="M239.98,-108C239.98,-108 178.98,-108 178.98,-108 172.98,-108 166.98,-102 166.98,-96 166.98,-96 166.98,-84 166.98,-84 166.98,-78 172.98,-72 178.98,-72 178.98,-72 239.98,-72 239.98,-72 245.98,-72 251.98,-78 251.98,-84 251.98,-84 251.98,-96 251.98,-96 251.98,-102 245.98,-108 239.98,-108"/>
<text text-anchor="middle" x="209.48" y="-87.5" font-family="sans" font-size="10.00">star_statistics</text>
</g>
<!-- 2&#45;&gt;0 -->
<g id="edge4" class="edge">
<title>2&#45;&gt;0</title>
<path fill="none" stroke="grey" stroke-width="2" d="M252.38,-72.94C284.88,-60.78 329.04,-44.24 359.88,-32.7"/>
<polygon fill="grey" stroke="grey" stroke-width="2" points="361.26,-35.92 369.4,-29.14 358.8,-29.37 361.26,-35.92"/>
</g>
<!-- 3&#45;&gt;2 -->
<g id="edge11" class="edge">
<title>3&#45;&gt;2</title>
<path fill="none" stroke="grey" stroke-width="2" d="M342.17,-229.39C294.67,-222.5 200.04,-205.8 180.48,-180 166.41,-161.44 177.18,-135.77 189.39,-116.77"/>
<polygon fill="grey" stroke="grey" stroke-width="2" points="192.43,-118.52 195.2,-108.29 186.66,-114.56 192.43,-118.52"/>
</g>
<!-- 6 -->
<g id="node7" class="node">
<title>6</title>
<path fill="none" stroke="#56d8d0" stroke-width="2" d="M348.98,-180C348.98,-180 277.98,-180 277.98,-180 271.98,-180 265.98,-174 265.98,-168 265.98,-168 265.98,-156 265.98,-156 265.98,-150 271.98,-144 277.98,-144 277.98,-144 348.98,-144 348.98,-144 354.98,-144 360.98,-150 360.98,-156 360.98,-156 360.98,-168 360.98,-168 360.98,-174 354.98,-180 348.98,-180"/>
<text text-anchor="middle" x="313.48" y="-159.5" font-family="sans" font-size="10.00">insertion_profile</text>
</g>
<!-- 3&#45;&gt;6 -->
<g id="edge15" class="edge">
<title>3&#45;&gt;6</title>
<path fill="none" stroke="grey" stroke-width="2" d="M355.63,-215.7C348.99,-207.39 340.9,-197.28 333.59,-188.14"/>
<polygon fill="grey" stroke="grey" stroke-width="2" points="336.14,-185.73 327.16,-180.1 330.67,-190.1 336.14,-185.73"/>
</g>
<!-- 7 -->
<g id="node8" class="node">
<title>7</title>
<path fill="none" stroke="#d8cb56" stroke-width="2" d="M457.98,-180C457.98,-180 390.98,-180 390.98,-180 384.98,-180 378.98,-174 378.98,-168 378.98,-168 378.98,-156 378.98,-156 378.98,-150 384.98,-144 390.98,-144 390.98,-144 457.98,-144 457.98,-144 463.98,-144 469.98,-150 469.98,-156 469.98,-156 469.98,-168 469.98,-168 469.98,-174 463.98,-180 457.98,-180"/>
<text text-anchor="middle" x="424.48" y="-159.5" font-family="sans" font-size="10.00">clipping_profile</text>
</g>
<!-- 3&#45;&gt;7 -->
<g id="edge16" class="edge">
<title>3&#45;&gt;7</title>
<path fill="none" stroke="grey" stroke-width="2" d="M383.07,-215.7C389.6,-207.39 397.54,-197.28 404.72,-188.14"/>
<polygon fill="grey" stroke="grey" stroke-width="2" points="407.61,-190.13 411.04,-180.1 402.11,-185.81 407.61,-190.13"/>
</g>
<!-- 8 -->
<g id="node9" class="node">
<title>8</title>
<path fill="none" stroke="#56c9d8" stroke-width="2" d="M613.98,-180C613.98,-180 538.98,-180 538.98,-180 532.98,-180 526.98,-174 526.98,-168 526.98,-168 526.98,-156 526.98,-156 526.98,-150 532.98,-144 538.98,-144 538.98,-144 613.98,-144 613.98,-144 619.98,-144 625.98,-150 625.98,-156 625.98,-156 625.98,-168 625.98,-168 625.98,-174 619.98,-180 613.98,-180"/>
<text text-anchor="middle" x="576.48" y="-159.5" font-family="sans" font-size="10.00">read_distribution</text>
</g>
<!-- 3&#45;&gt;8 -->
<g id="edge17" class="edge">
<title>3&#45;&gt;8</title>
<path fill="none" stroke="grey" stroke-width="2" d="M396.54,-223.85C427.01,-213.54 477.46,-196.48 517.2,-183.05"/>
<polygon fill="grey" stroke="grey" stroke-width="2" points="518.44,-186.32 526.79,-179.8 516.2,-179.69 518.44,-186.32"/>
</g>
<!-- 9 -->
<g id="node10" class="node">
<title>9</title>
<path fill="none" stroke="#d8a456" stroke-width="2" d="M235.48,-180C235.48,-180 201.48,-180 201.48,-180 195.48,-180 189.48,-174 189.48,-168 189.48,-168 189.48,-156 189.48,-156 189.48,-150 195.48,-144 201.48,-144 201.48,-144 235.48,-144 235.48,-144 241.48,-144 247.48,-150 247.48,-156 247.48,-156 247.48,-168 247.48,-168 247.48,-174 241.48,-180 235.48,-180"/>
<text text-anchor="middle" x="218.48" y="-159.5" font-family="sans" font-size="10.00">read_GC</text>
</g>
<!-- 3&#45;&gt;9 -->
<g id="edge18" class="edge">
<title>3&#45;&gt;9</title>
<path fill="none" stroke="grey" stroke-width="2" d="M342.13,-220.32C318.36,-209.31 283.67,-193.22 257.08,-180.89"/>
<polygon fill="grey" stroke="grey" stroke-width="2" points="258.22,-177.57 247.68,-176.54 255.28,-183.92 258.22,-177.57"/>
</g>
<!-- 3&#45;&gt;10 -->
<g id="edge24" class="edge">
<title>3&#45;&gt;10</title>
<path fill="none" stroke="grey" stroke-width="2" d="M396.88,-227.09C422.2,-220.17 458.91,-206.17 479.48,-180 493.17,-162.58 497.56,-137.53 498.73,-118.44"/>
<polygon fill="grey" stroke="grey" stroke-width="2" points="502.24,-118.39 499.1,-108.27 495.24,-118.14 502.24,-118.39"/>
</g>
<!-- 12 -->
<g id="node13" class="node">
<title>12</title>
<path fill="none" stroke="#88d856" stroke-width="2" d="M120.98,-180C120.98,-180 27.98,-180 27.98,-180 21.98,-180 15.98,-174 15.98,-168 15.98,-168 15.98,-156 15.98,-156 15.98,-150 21.98,-144 27.98,-144 27.98,-144 120.98,-144 120.98,-144 126.98,-144 132.98,-150 132.98,-156 132.98,-156 132.98,-168 132.98,-168 132.98,-174 126.98,-180 120.98,-180"/>
<text text-anchor="middle" x="74.48" y="-159.5" font-family="sans" font-size="10.00">compile_star_counts</text>
</g>
<!-- 3&#45;&gt;12 -->
<g id="edge28" class="edge">
<title>3&#45;&gt;12</title>
<path fill="none" stroke="grey" stroke-width="2" d="M342.25,-226.54C297.37,-215.89 206.51,-194.33 143.15,-179.29"/>
<polygon fill="grey" stroke="grey" stroke-width="2" points="143.76,-175.84 133.22,-176.94 142.14,-182.65 143.76,-175.84"/>
</g>
<!-- 4&#45;&gt;0 -->
<g id="edge1" class="edge">
<title>4&#45;&gt;0</title>
<path fill="none" stroke="grey" stroke-width="2" d="M684.85,-143.91C656.05,-124.51 606.45,-92.83 560.48,-72 518.37,-52.92 467.34,-37.56 433.51,-28.39"/>
<polygon fill="grey" stroke="grey" stroke-width="2" points="434.15,-24.94 423.59,-25.74 432.35,-31.7 434.15,-24.94"/>
</g>
<!-- 4&#45;&gt;10 -->
<g id="edge19" class="edge">
<title>4&#45;&gt;10</title>
<path fill="none" stroke="grey" stroke-width="2" d="M682.26,-149.31C677.69,-147.46 672.97,-145.63 668.48,-144 623.11,-127.56 569.86,-111.46 535.21,-101.4"/>
<polygon fill="grey" stroke="grey" stroke-width="2" points="536.1,-98.02 525.52,-98.61 534.16,-104.74 536.1,-98.02"/>
</g>
<!-- 5&#45;&gt;0 -->
<g id="edge7" class="edge">
<title>5&#45;&gt;0</title>
<path fill="none" stroke="grey" stroke-width="2" d="M761.06,-143.89C725.24,-124.32 663.51,-92.35 607.48,-72 548.11,-50.44 476.28,-34.44 433.59,-25.92"/>
<polygon fill="grey" stroke="grey" stroke-width="2" points="434.14,-22.47 423.65,-23.97 432.79,-29.33 434.14,-22.47"/>
</g>
<!-- 5&#45;&gt;10 -->
<g id="edge25" class="edge">
<title>5&#45;&gt;10</title>
<path fill="none" stroke="grey" stroke-width="2" d="M754.47,-146.81C751.45,-145.81 748.42,-144.85 745.48,-144 672.3,-122.74 584.67,-105.93 535.92,-97.31"/>
<polygon fill="grey" stroke="grey" stroke-width="2" points="536.29,-93.83 525.84,-95.55 535.09,-100.72 536.29,-93.83"/>
</g>
<!-- 6&#45;&gt;0 -->
<g id="edge10" class="edge">
<title>6&#45;&gt;0</title>
<path fill="none" stroke="grey" stroke-width="2" d="M323.49,-143.87C337.88,-119.24 364.54,-73.64 381.35,-44.88"/>
<polygon fill="grey" stroke="grey" stroke-width="2" points="384.4,-46.59 386.43,-36.19 378.36,-43.06 384.4,-46.59"/>
</g>
<!-- 6&#45;&gt;10 -->
<g id="edge26" class="edge">
<title>6&#45;&gt;10</title>
<path fill="none" stroke="grey" stroke-width="2" d="M358.73,-143.88C390.45,-131.88 432.29,-116.04 461.9,-104.84"/>
<polygon fill="grey" stroke="grey" stroke-width="2" points="463.32,-108.04 471.44,-101.23 460.85,-101.5 463.32,-108.04"/>
</g>
<!-- 7&#45;&gt;0 -->
<g id="edge5" class="edge">
<title>7&#45;&gt;0</title>
<path fill="none" stroke="grey" stroke-width="2" d="M421.1,-143.87C416.31,-119.56 407.48,-74.82 401.8,-46.01"/>
<polygon fill="grey" stroke="grey" stroke-width="2" points="405.23,-45.32 399.87,-36.19 398.37,-46.68 405.23,-45.32"/>
</g>
<!-- 7&#45;&gt;10 -->
<g id="edge22" class="edge">
<title>7&#45;&gt;10</title>
<path fill="none" stroke="grey" stroke-width="2" d="M442.77,-143.7C451.91,-135.05 463.12,-124.45 473.08,-115.03"/>
<polygon fill="grey" stroke="grey" stroke-width="2" points="475.54,-117.52 480.39,-108.1 470.72,-112.43 475.54,-117.52"/>
</g>
<!-- 8&#45;&gt;0 -->
<g id="edge3" class="edge">
<title>8&#45;&gt;0</title>
<path fill="none" stroke="grey" stroke-width="2" d="M572.55,-143.96C567.16,-124.14 555.64,-91.65 534.48,-72 506.26,-45.8 463.71,-32.11 433.33,-25.26"/>
<polygon fill="grey" stroke="grey" stroke-width="2" points="434.04,-21.83 423.53,-23.19 432.59,-28.68 434.04,-21.83"/>
</g>
<!-- 8&#45;&gt;10 -->
<g id="edge21" class="edge">
<title>8&#45;&gt;10</title>
<path fill="none" stroke="grey" stroke-width="2" d="M557.2,-143.7C547.56,-135.05 535.75,-124.45 525.25,-115.03"/>
<polygon fill="grey" stroke="grey" stroke-width="2" points="527.32,-112.18 517.54,-108.1 522.64,-117.39 527.32,-112.18"/>
</g>
<!-- 9&#45;&gt;0 -->
<g id="edge2" class="edge">
<title>9&#45;&gt;0</title>
<path fill="none" stroke="grey" stroke-width="2" d="M239.95,-143.87C271.62,-118.6 330.97,-71.25 366.79,-42.68"/>
<polygon fill="grey" stroke="grey" stroke-width="2" points="369.29,-45.16 374.93,-36.19 364.93,-39.69 369.29,-45.16"/>
</g>
<!-- 9&#45;&gt;10 -->
<g id="edge20" class="edge">
<title>9&#45;&gt;10</title>
<path fill="none" stroke="grey" stroke-width="2" d="M247.63,-147.57C250.92,-146.27 254.24,-145.05 257.48,-144 328.09,-121.09 413.53,-104.91 461.37,-96.85"/>
<polygon fill="grey" stroke="grey" stroke-width="2" points="461.98,-100.29 471.27,-95.2 460.84,-93.39 461.98,-100.29"/>
</g>
<!-- 10&#45;&gt;0 -->
<g id="edge8" class="edge">
<title>10&#45;&gt;0</title>
<path fill="none" stroke="grey" stroke-width="2" d="M473.52,-71.88C460.44,-62.89 444.22,-51.76 430.04,-42.03"/>
<polygon fill="grey" stroke="grey" stroke-width="2" points="431.75,-38.96 421.52,-36.19 427.79,-44.73 431.75,-38.96"/>
</g>
<!-- 11 -->
<g id="node12" class="node">
<title>11</title>
<path fill="none" stroke="#97d856" stroke-width="2" d="M104.98,-108C104.98,-108 51.98,-108 51.98,-108 45.98,-108 39.98,-102 39.98,-96 39.98,-96 39.98,-84 39.98,-84 39.98,-78 45.98,-72 51.98,-72 51.98,-72 104.98,-72 104.98,-72 110.98,-72 116.98,-78 116.98,-84 116.98,-84 116.98,-96 116.98,-96 116.98,-102 110.98,-108 104.98,-108"/>
<text text-anchor="middle" x="78.48" y="-87.5" font-family="sans" font-size="10.00">filter_counts</text>
</g>
<!-- 11&#45;&gt;0 -->
<g id="edge9" class="edge">
<title>11&#45;&gt;0</title>
<path fill="none" stroke="grey" stroke-width="2" d="M117.15,-80.49C178.8,-66.92 298.57,-40.55 359.28,-27.19"/>
<polygon fill="grey" stroke="grey" stroke-width="2" points="360.18,-30.57 369.2,-25 358.68,-23.74 360.18,-30.57"/>
</g>
<!-- 12&#45;&gt;11 -->
<g id="edge27" class="edge">
<title>12&#45;&gt;11</title>
<path fill="none" stroke="grey" stroke-width="2" d="M75.47,-143.7C75.91,-135.98 76.44,-126.71 76.93,-118.11"/>
<polygon fill="grey" stroke="grey" stroke-width="2" points="80.42,-118.29 77.5,-108.1 73.43,-117.89 80.42,-118.29"/>
</g>
</g>
</svg>
