<?xml version="1.0" encoding="UTF-8" standalone="no"?>
<!DOCTYPE svg PUBLIC "-//W3C//DTD SVG 1.1//EN"
 "http://www.w3.org/Graphics/SVG/1.1/DTD/svg11.dtd">
<!-- Generated by graphviz version 2.49.0 (20210829.0051)
 -->
<!-- Title: snakemake_dag Pages: 1 -->
<svg width="1114pt" height="548pt"
 viewBox="0.00 0.00 1114.00 548.00" xmlns="http://www.w3.org/2000/svg" xmlns:xlink="http://www.w3.org/1999/xlink">
<g id="graph0" class="graph" transform="scale(1 1) rotate(0) translate(4 544)">
<title>snakemake_dag</title>
<polygon fill="white" stroke="transparent" points="-4,4 -4,-544 1110,-544 1110,4 -4,4"/>
<!-- 0 -->
<g id="node1" class="node">
<title>0</title>
<path fill="none" stroke="#56d89a" stroke-width="2" d="M564,-36C564,-36 534,-36 534,-36 528,-36 522,-30 522,-24 522,-24 522,-12 522,-12 522,-6 528,0 534,0 534,0 564,0 564,0 570,0 576,-6 576,-12 576,-12 576,-24 576,-24 576,-30 570,-36 564,-36"/>
<text text-anchor="middle" x="549" y="-15.5" font-family="sans" font-size="10.00">all</text>
</g>
<!-- 1 -->
<g id="node2" class="node">
<title>1</title>
<path fill="none" stroke="#d8b456" stroke-width="2" d="M437,-540C437,-540 407,-540 407,-540 401,-540 395,-534 395,-528 395,-528 395,-516 395,-516 395,-510 401,-504 407,-504 407,-504 437,-504 437,-504 443,-504 449,-510 449,-516 449,-516 449,-528 449,-528 449,-534 443,-540 437,-540"/>
<text text-anchor="middle" x="422" y="-519.5" font-family="sans" font-size="10.00">fastp</text>
</g>
<!-- 1&#45;&gt;0 -->
<g id="edge4" class="edge">
<title>1&#45;&gt;0</title>
<path fill="none" stroke="grey" stroke-width="2" d="M394.96,-517.88C301.82,-506.38 0,-462.68 0,-379 0,-379 0,-379 0,-161 0,-92.44 62.07,-96.78 126,-72 196.2,-44.79 421.97,-27.35 511.71,-21.34"/>
<polygon fill="grey" stroke="grey" stroke-width="2" points="511.97,-24.83 521.71,-20.68 511.51,-17.85 511.97,-24.83"/>
</g>
<!-- 3 -->
<g id="node4" class="node">
<title>3</title>
<path fill="none" stroke="#56c9d8" stroke-width="2" d="M305,-468C305,-468 275,-468 275,-468 269,-468 263,-462 263,-456 263,-456 263,-444 263,-444 263,-438 269,-432 275,-432 275,-432 305,-432 305,-432 311,-432 317,-438 317,-444 317,-444 317,-456 317,-456 317,-462 311,-468 305,-468"/>
<text text-anchor="middle" x="290" y="-447.5" font-family="sans" font-size="10.00">STAR</text>
</g>
<!-- 1&#45;&gt;3 -->
<g id="edge20" class="edge">
<title>1&#45;&gt;3</title>
<path fill="none" stroke="grey" stroke-width="2" d="M394.97,-506.67C375.17,-496.17 348.08,-481.8 326.38,-470.29"/>
<polygon fill="grey" stroke="grey" stroke-width="2" points="327.92,-467.15 317.45,-465.56 324.64,-473.33 327.92,-467.15"/>
</g>
<!-- 4 -->
<g id="node5" class="node">
<title>4</title>
<path fill="none" stroke="#d8a456" stroke-width="2" d="M1064,-324C1064,-324 1034,-324 1034,-324 1028,-324 1022,-318 1022,-312 1022,-312 1022,-300 1022,-300 1022,-294 1028,-288 1034,-288 1034,-288 1064,-288 1064,-288 1070,-288 1076,-294 1076,-300 1076,-300 1076,-312 1076,-312 1076,-318 1070,-324 1064,-324"/>
<text text-anchor="middle" x="1049" y="-303.5" font-family="sans" font-size="10.00">fastqc</text>
</g>
<!-- 1&#45;&gt;4 -->
<g id="edge21" class="edge">
<title>1&#45;&gt;4</title>
<path fill="none" stroke="grey" stroke-width="2" d="M449.1,-512.62C532.89,-486.56 794.94,-403.88 1008,-324 1009.4,-323.48 1010.82,-322.93 1012.25,-322.38"/>
<polygon fill="grey" stroke="grey" stroke-width="2" points="1013.76,-325.55 1021.76,-318.6 1011.17,-319.04 1013.76,-325.55"/>
</g>
<!-- 5 -->
<g id="node6" class="node">
<title>5</title>
<path fill="none" stroke="#56d8a9" stroke-width="2" d="M1094,-468C1094,-468 1044,-468 1044,-468 1038,-468 1032,-462 1032,-456 1032,-456 1032,-444 1032,-444 1032,-438 1038,-432 1044,-432 1044,-432 1094,-432 1094,-432 1100,-432 1106,-438 1106,-444 1106,-444 1106,-456 1106,-456 1106,-462 1100,-468 1094,-468"/>
<text text-anchor="middle" x="1069" y="-447.5" font-family="sans" font-size="10.00">fastqscreen</text>
</g>
<!-- 1&#45;&gt;5 -->
<g id="edge22" class="edge">
<title>1&#45;&gt;5</title>
<path fill="none" stroke="grey" stroke-width="2" d="M449.39,-518.04C549.28,-507.23 894.82,-469.84 1021.75,-456.11"/>
<polygon fill="grey" stroke="grey" stroke-width="2" points="1022.36,-459.57 1031.93,-455.01 1021.61,-452.61 1022.36,-459.57"/>
</g>
<!-- 2 -->
<g id="node3" class="node">
<title>2</title>
<path fill="none" stroke="#97d856" stroke-width="2" d="M101.5,-324C101.5,-324 40.5,-324 40.5,-324 34.5,-324 28.5,-318 28.5,-312 28.5,-312 28.5,-300 28.5,-300 28.5,-294 34.5,-288 40.5,-288 40.5,-288 101.5,-288 101.5,-288 107.5,-288 113.5,-294 113.5,-300 113.5,-300 113.5,-312 113.5,-312 113.5,-318 107.5,-324 101.5,-324"/>
<text text-anchor="middle" x="71" y="-303.5" font-family="sans" font-size="10.00">star_statistics</text>
</g>
<!-- 2&#45;&gt;0 -->
<g id="edge18" class="edge">
<title>2&#45;&gt;0</title>
<path fill="none" stroke="grey" stroke-width="2" d="M71.52,-287.79C72.53,-269.51 75.47,-239.98 84,-216 108.98,-145.77 107.88,-113.21 170,-72 225.62,-35.11 427.36,-23.48 511.62,-20.18"/>
<polygon fill="grey" stroke="grey" stroke-width="2" points="511.91,-23.67 521.77,-19.8 511.65,-16.68 511.91,-23.67"/>
</g>
<!-- 3&#45;&gt;2 -->
<g id="edge19" class="edge">
<title>3&#45;&gt;2</title>
<path fill="none" stroke="grey" stroke-width="2" d="M262.72,-445.78C228.23,-440.52 168.48,-427.33 128,-396 106.93,-379.69 91.42,-353.24 81.94,-333.41"/>
<polygon fill="grey" stroke="grey" stroke-width="2" points="85.11,-331.92 77.78,-324.27 78.74,-334.83 85.11,-331.92"/>
</g>
<!-- 6 -->
<g id="node7" class="node">
<title>6</title>
<path fill="none" stroke="#56d863" stroke-width="2" d="M176.5,-252C176.5,-252 105.5,-252 105.5,-252 99.5,-252 93.5,-246 93.5,-240 93.5,-240 93.5,-228 93.5,-228 93.5,-222 99.5,-216 105.5,-216 105.5,-216 176.5,-216 176.5,-216 182.5,-216 188.5,-222 188.5,-228 188.5,-228 188.5,-240 188.5,-240 188.5,-246 182.5,-252 176.5,-252"/>
<text text-anchor="middle" x="141" y="-231.5" font-family="sans" font-size="10.00">insertion_profile</text>
</g>
<!-- 3&#45;&gt;6 -->
<g id="edge23" class="edge">
<title>3&#45;&gt;6</title>
<path fill="none" stroke="grey" stroke-width="2" d="M264.71,-431.91C234.95,-410.39 186.4,-370.53 161,-324 150.53,-304.83 145.54,-280.48 143.16,-262.1"/>
<polygon fill="grey" stroke="grey" stroke-width="2" points="146.63,-261.6 142.04,-252.05 139.67,-262.37 146.63,-261.6"/>
</g>
<!-- 7 -->
<g id="node8" class="node">
<title>7</title>
<path fill="none" stroke="#566bd8" stroke-width="2" d="M249.5,-324C249.5,-324 182.5,-324 182.5,-324 176.5,-324 170.5,-318 170.5,-312 170.5,-312 170.5,-300 170.5,-300 170.5,-294 176.5,-288 182.5,-288 182.5,-288 249.5,-288 249.5,-288 255.5,-288 261.5,-294 261.5,-300 261.5,-300 261.5,-312 261.5,-312 261.5,-318 255.5,-324 249.5,-324"/>
<text text-anchor="middle" x="216" y="-303.5" font-family="sans" font-size="10.00">clipping_profile</text>
</g>
<!-- 3&#45;&gt;7 -->
<g id="edge24" class="edge">
<title>3&#45;&gt;7</title>
<path fill="none" stroke="grey" stroke-width="2" d="M275.88,-431.55C268.19,-421.53 258.88,-408.5 252,-396 241,-376.01 231.47,-351.95 224.98,-333.89"/>
<polygon fill="grey" stroke="grey" stroke-width="2" points="228.22,-332.56 221.61,-324.28 221.62,-334.87 228.22,-332.56"/>
</g>
<!-- 8 -->
<g id="node9" class="node">
<title>8</title>
<path fill="none" stroke="#afd856" stroke-width="2" d="M307,-396C307,-396 273,-396 273,-396 267,-396 261,-390 261,-384 261,-384 261,-372 261,-372 261,-366 267,-360 273,-360 273,-360 307,-360 307,-360 313,-360 319,-366 319,-372 319,-372 319,-384 319,-384 319,-390 313,-396 307,-396"/>
<text text-anchor="middle" x="290" y="-375.5" font-family="sans" font-size="10.00">read_GC</text>
</g>
<!-- 3&#45;&gt;8 -->
<g id="edge25" class="edge">
<title>3&#45;&gt;8</title>
<path fill="none" stroke="grey" stroke-width="2" d="M290,-431.7C290,-423.98 290,-414.71 290,-406.11"/>
<polygon fill="grey" stroke="grey" stroke-width="2" points="293.5,-406.1 290,-396.1 286.5,-406.1 293.5,-406.1"/>
</g>
<!-- 12 -->
<g id="node13" class="node">
<title>12</title>
<path fill="none" stroke="#56d88a" stroke-width="2" d="M551.5,-396C551.5,-396 458.5,-396 458.5,-396 452.5,-396 446.5,-390 446.5,-384 446.5,-384 446.5,-372 446.5,-372 446.5,-366 452.5,-360 458.5,-360 458.5,-360 551.5,-360 551.5,-360 557.5,-360 563.5,-366 563.5,-372 563.5,-372 563.5,-384 563.5,-384 563.5,-390 557.5,-396 551.5,-396"/>
<text text-anchor="middle" x="505" y="-375.5" font-family="sans" font-size="10.00">compile_star_counts</text>
</g>
<!-- 3&#45;&gt;12 -->
<g id="edge29" class="edge">
<title>3&#45;&gt;12</title>
<path fill="none" stroke="grey" stroke-width="2" d="M317.23,-440.13C348.61,-429.92 401.2,-412.8 442.75,-399.27"/>
<polygon fill="grey" stroke="grey" stroke-width="2" points="444.09,-402.51 452.52,-396.09 441.92,-395.86 444.09,-402.51"/>
</g>
<!-- 13 -->
<g id="node14" class="node">
<title>13</title>
<path fill="none" stroke="#56d8c1" stroke-width="2" d="M690,-396C690,-396 660,-396 660,-396 654,-396 648,-390 648,-384 648,-384 648,-372 648,-372 648,-366 654,-360 660,-360 660,-360 690,-360 690,-360 696,-360 702,-366 702,-372 702,-372 702,-384 702,-384 702,-390 696,-396 690,-396"/>
<text text-anchor="middle" x="675" y="-375.5" font-family="sans" font-size="10.00">multiqc</text>
</g>
<!-- 3&#45;&gt;13 -->
<g id="edge30" class="edge">
<title>3&#45;&gt;13</title>
<path fill="none" stroke="grey" stroke-width="2" d="M317.07,-444.08C384.59,-431.8 560.51,-399.82 637.74,-385.78"/>
<polygon fill="grey" stroke="grey" stroke-width="2" points="638.74,-389.15 647.96,-383.92 637.49,-382.26 638.74,-389.15"/>
</g>
<!-- 4&#45;&gt;0 -->
<g id="edge15" class="edge">
<title>4&#45;&gt;0</title>
<path fill="none" stroke="grey" stroke-width="2" d="M1053.51,-287.99C1063.78,-244.99 1083.7,-131.19 1025,-72 994.22,-40.97 692.93,-25.16 586.23,-20.5"/>
<polygon fill="grey" stroke="grey" stroke-width="2" points="586.37,-17 576.23,-20.07 586.07,-24 586.37,-17"/>
</g>
<!-- 5&#45;&gt;0 -->
<g id="edge14" class="edge">
<title>5&#45;&gt;0</title>
<path fill="none" stroke="grey" stroke-width="2" d="M1076.08,-431.85C1086.31,-405.49 1104,-353.21 1104,-307 1104,-307 1104,-307 1104,-161 1104,-114.96 1089.77,-96.82 1051,-72 974.01,-22.71 689.13,-18.56 586.31,-18.71"/>
<polygon fill="grey" stroke="grey" stroke-width="2" points="586.09,-15.21 576.1,-18.74 586.11,-22.21 586.09,-15.21"/>
</g>
<!-- 6&#45;&gt;0 -->
<g id="edge11" class="edge">
<title>6&#45;&gt;0</title>
<path fill="none" stroke="grey" stroke-width="2" d="M142.16,-215.91C145.4,-182.48 157.61,-108.52 203,-72 250.01,-34.17 432.29,-23.14 511.69,-20.09"/>
<polygon fill="grey" stroke="grey" stroke-width="2" points="511.87,-23.59 521.74,-19.73 511.62,-16.59 511.87,-23.59"/>
</g>
<!-- 7&#45;&gt;0 -->
<g id="edge12" class="edge">
<title>7&#45;&gt;0</title>
<path fill="none" stroke="grey" stroke-width="2" d="M211.72,-287.87C202.14,-245.09 184.07,-132.67 241,-72 277.27,-33.35 437.6,-22.82 511.48,-20.01"/>
<polygon fill="grey" stroke="grey" stroke-width="2" points="511.86,-23.49 521.73,-19.64 511.61,-16.5 511.86,-23.49"/>
</g>
<!-- 8&#45;&gt;0 -->
<g id="edge17" class="edge">
<title>8&#45;&gt;0</title>
<path fill="none" stroke="grey" stroke-width="2" d="M287.98,-359.8C281.59,-301.97 264.3,-115.73 301,-72 327.62,-40.28 449.03,-26.56 511.55,-21.51"/>
<polygon fill="grey" stroke="grey" stroke-width="2" points="512.08,-24.98 521.78,-20.72 511.54,-18 512.08,-24.98"/>
</g>
<!-- 9 -->
<g id="node10" class="node">
<title>9</title>
<path fill="none" stroke="#bed856" stroke-width="2" d="M481,-180C481,-180 407,-180 407,-180 401,-180 395,-174 395,-168 395,-168 395,-156 395,-156 395,-150 401,-144 407,-144 407,-144 481,-144 481,-144 487,-144 493,-150 493,-156 493,-156 493,-168 493,-168 493,-174 487,-180 481,-180"/>
<text text-anchor="middle" x="444" y="-159.5" font-family="sans" font-size="10.00">deseq2_pairwise</text>
</g>
<!-- 9&#45;&gt;0 -->
<g id="edge10" class="edge">
<title>9&#45;&gt;0</title>
<path fill="none" stroke="grey" stroke-width="2" d="M394.94,-154.97C365.57,-148.55 330.46,-135.31 312,-108 303.04,-94.75 302,-84.49 312,-72 336.56,-41.35 450.9,-27.24 511.33,-21.83"/>
<polygon fill="grey" stroke="grey" stroke-width="2" points="511.94,-25.29 521.61,-20.95 511.34,-18.32 511.94,-25.29"/>
</g>
<!-- 18 -->
<g id="node19" class="node">
<title>18</title>
<path fill="none" stroke="#d85656" stroke-width="2" d="M391,-108C391,-108 333,-108 333,-108 327,-108 321,-102 321,-96 321,-96 321,-84 321,-84 321,-78 327,-72 333,-72 333,-72 391,-72 391,-72 397,-72 403,-78 403,-84 403,-84 403,-96 403,-96 403,-102 397,-108 391,-108"/>
<text text-anchor="middle" x="362" y="-87.5" font-family="sans" font-size="10.00">deseq2_qplot</text>
</g>
<!-- 9&#45;&gt;18 -->
<g id="edge35" class="edge">
<title>9&#45;&gt;18</title>
<path fill="none" stroke="grey" stroke-width="2" d="M423.73,-143.7C413.5,-134.97 400.94,-124.24 389.82,-114.75"/>
<polygon fill="grey" stroke="grey" stroke-width="2" points="391.91,-111.94 382.04,-108.1 387.37,-117.26 391.91,-111.94"/>
</g>
<!-- 19 -->
<g id="node20" class="node">
<title>19</title>
<path fill="none" stroke="#d87d56" stroke-width="2" d="M463,-108C463,-108 433,-108 433,-108 427,-108 421,-102 421,-96 421,-96 421,-84 421,-84 421,-78 427,-72 433,-72 433,-72 463,-72 463,-72 469,-72 475,-78 475,-84 475,-84 475,-96 475,-96 475,-102 469,-108 463,-108"/>
<text text-anchor="middle" x="448" y="-87.5" font-family="sans" font-size="10.00">GO</text>
</g>
<!-- 9&#45;&gt;19 -->
<g id="edge36" class="edge">
<title>9&#45;&gt;19</title>
<path fill="none" stroke="grey" stroke-width="2" d="M444.99,-143.7C445.43,-135.98 445.96,-126.71 446.45,-118.11"/>
<polygon fill="grey" stroke="grey" stroke-width="2" points="449.95,-118.29 447.02,-108.1 442.96,-117.89 449.95,-118.29"/>
</g>
<!-- 20 -->
<g id="node21" class="node">
<title>20</title>
<path fill="none" stroke="#61d856" stroke-width="2" d="M536.5,-108C536.5,-108 505.5,-108 505.5,-108 499.5,-108 493.5,-102 493.5,-96 493.5,-96 493.5,-84 493.5,-84 493.5,-78 499.5,-72 505.5,-72 505.5,-72 536.5,-72 536.5,-72 542.5,-72 548.5,-78 548.5,-84 548.5,-84 548.5,-96 548.5,-96 548.5,-102 542.5,-108 536.5,-108"/>
<text text-anchor="middle" x="521" y="-87.5" font-family="sans" font-size="10.00">volcano</text>
</g>
<!-- 9&#45;&gt;20 -->
<g id="edge37" class="edge">
<title>9&#45;&gt;20</title>
<path fill="none" stroke="grey" stroke-width="2" d="M463.03,-143.7C472.54,-135.05 484.21,-124.45 494.57,-115.03"/>
<polygon fill="grey" stroke="grey" stroke-width="2" points="497.14,-117.42 502.19,-108.1 492.43,-112.24 497.14,-117.42"/>
</g>
<!-- 10 -->
<g id="node11" class="node">
<title>10</title>
<path fill="none" stroke="#d88d56" stroke-width="2" d="M543.5,-252C543.5,-252 494.5,-252 494.5,-252 488.5,-252 482.5,-246 482.5,-240 482.5,-240 482.5,-228 482.5,-228 482.5,-222 488.5,-216 494.5,-216 494.5,-216 543.5,-216 543.5,-216 549.5,-216 555.5,-222 555.5,-228 555.5,-228 555.5,-240 555.5,-240 555.5,-246 549.5,-252 543.5,-252"/>
<text text-anchor="middle" x="519" y="-231.5" font-family="sans" font-size="10.00">deseq2_init</text>
</g>
<!-- 10&#45;&gt;9 -->
<g id="edge26" class="edge">
<title>10&#45;&gt;9</title>
<path fill="none" stroke="grey" stroke-width="2" d="M500.46,-215.7C491.2,-207.05 479.84,-196.45 469.74,-187.03"/>
<polygon fill="grey" stroke="grey" stroke-width="2" points="472.02,-184.37 462.33,-180.1 467.25,-189.49 472.02,-184.37"/>
</g>
<!-- 21 -->
<g id="node22" class="node">
<title>21</title>
<path fill="none" stroke="#56d8d0" stroke-width="2" d="M574.5,-180C574.5,-180 523.5,-180 523.5,-180 517.5,-180 511.5,-174 511.5,-168 511.5,-168 511.5,-156 511.5,-156 511.5,-150 517.5,-144 523.5,-144 523.5,-144 574.5,-144 574.5,-144 580.5,-144 586.5,-150 586.5,-156 586.5,-156 586.5,-168 586.5,-168 586.5,-174 580.5,-180 574.5,-180"/>
<text text-anchor="middle" x="549" y="-159.5" font-family="sans" font-size="10.00">run_glimma</text>
</g>
<!-- 10&#45;&gt;21 -->
<g id="edge38" class="edge">
<title>10&#45;&gt;21</title>
<path fill="none" stroke="grey" stroke-width="2" d="M526.42,-215.7C529.79,-207.81 533.87,-198.3 537.62,-189.55"/>
<polygon fill="grey" stroke="grey" stroke-width="2" points="540.95,-190.67 541.67,-180.1 534.51,-187.92 540.95,-190.67"/>
</g>
<!-- 11 -->
<g id="node12" class="node">
<title>11</title>
<path fill="none" stroke="#d8cb56" stroke-width="2" d="M593.5,-324C593.5,-324 540.5,-324 540.5,-324 534.5,-324 528.5,-318 528.5,-312 528.5,-312 528.5,-300 528.5,-300 528.5,-294 534.5,-288 540.5,-288 540.5,-288 593.5,-288 593.5,-288 599.5,-288 605.5,-294 605.5,-300 605.5,-300 605.5,-312 605.5,-312 605.5,-318 599.5,-324 593.5,-324"/>
<text text-anchor="middle" x="567" y="-303.5" font-family="sans" font-size="10.00">filter_counts</text>
</g>
<!-- 11&#45;&gt;10 -->
<g id="edge27" class="edge">
<title>11&#45;&gt;10</title>
<path fill="none" stroke="grey" stroke-width="2" d="M555.13,-287.7C549.5,-279.47 542.65,-269.48 536.43,-260.42"/>
<polygon fill="grey" stroke="grey" stroke-width="2" points="539.27,-258.37 530.73,-252.1 533.5,-262.33 539.27,-258.37"/>
</g>
<!-- 14 -->
<g id="node15" class="node">
<title>14</title>
<path fill="none" stroke="#56d873" stroke-width="2" d="M644.5,-252C644.5,-252 585.5,-252 585.5,-252 579.5,-252 573.5,-246 573.5,-240 573.5,-240 573.5,-228 573.5,-228 573.5,-222 579.5,-216 585.5,-216 585.5,-216 644.5,-216 644.5,-216 650.5,-216 656.5,-222 656.5,-228 656.5,-228 656.5,-240 656.5,-240 656.5,-246 650.5,-252 644.5,-252"/>
<text text-anchor="middle" x="615" y="-231.5" font-family="sans" font-size="10.00">deseq2_norm</text>
</g>
<!-- 11&#45;&gt;14 -->
<g id="edge31" class="edge">
<title>11&#45;&gt;14</title>
<path fill="none" stroke="grey" stroke-width="2" d="M578.87,-287.7C584.5,-279.47 591.35,-269.48 597.57,-260.42"/>
<polygon fill="grey" stroke="grey" stroke-width="2" points="600.5,-262.33 603.27,-252.1 594.73,-258.37 600.5,-262.33"/>
</g>
<!-- 15 -->
<g id="node16" class="node">
<title>15</title>
<path fill="none" stroke="#56a2d8" stroke-width="2" d="M747.5,-180C747.5,-180 686.5,-180 686.5,-180 680.5,-180 674.5,-174 674.5,-168 674.5,-168 674.5,-156 674.5,-156 674.5,-150 680.5,-144 686.5,-144 686.5,-144 747.5,-144 747.5,-144 753.5,-144 759.5,-150 759.5,-156 759.5,-156 759.5,-168 759.5,-168 759.5,-174 753.5,-180 747.5,-180"/>
<text text-anchor="middle" x="717" y="-159.5" font-family="sans" font-size="10.00">deseq2_group</text>
</g>
<!-- 11&#45;&gt;15 -->
<g id="edge32" class="edge">
<title>11&#45;&gt;15</title>
<path fill="none" stroke="grey" stroke-width="2" d="M605.5,-290.13C624.99,-281.21 648.04,-268.41 665,-252 683.29,-234.3 697.31,-208.8 706.15,-189.63"/>
<polygon fill="grey" stroke="grey" stroke-width="2" points="709.46,-190.82 710.3,-180.26 703.05,-187.98 709.46,-190.82"/>
</g>
<!-- 12&#45;&gt;11 -->
<g id="edge28" class="edge">
<title>12&#45;&gt;11</title>
<path fill="none" stroke="grey" stroke-width="2" d="M520.33,-359.7C527.76,-351.3 536.82,-341.07 544.98,-331.86"/>
<polygon fill="grey" stroke="grey" stroke-width="2" points="547.84,-333.91 551.85,-324.1 542.6,-329.27 547.84,-333.91"/>
</g>
<!-- 13&#45;&gt;0 -->
<g id="edge16" class="edge">
<title>13&#45;&gt;0</title>
<path fill="none" stroke="grey" stroke-width="2" d="M702.09,-366.67C796.71,-329.16 1100.94,-195.91 991,-72 964.28,-41.88 688.21,-25.68 586.42,-20.69"/>
<polygon fill="grey" stroke="grey" stroke-width="2" points="586.45,-17.19 576.29,-20.21 586.11,-24.18 586.45,-17.19"/>
</g>
<!-- 14&#45;&gt;0 -->
<g id="edge13" class="edge">
<title>14&#45;&gt;0</title>
<path fill="none" stroke="grey" stroke-width="2" d="M611.61,-215.83C607.95,-197.82 601.72,-168.76 595,-144 586.2,-111.58 583.81,-103.45 572,-72 568.7,-63.23 564.75,-53.8 561.06,-45.36"/>
<polygon fill="grey" stroke="grey" stroke-width="2" points="564.16,-43.72 556.9,-36.01 557.76,-46.57 564.16,-43.72"/>
</g>
<!-- 15&#45;&gt;0 -->
<g id="edge6" class="edge">
<title>15&#45;&gt;0</title>
<path fill="none" stroke="grey" stroke-width="2" d="M702.05,-143.89C685.25,-125.16 656.7,-94.77 629,-72 615.25,-60.7 599.05,-49.6 584.83,-40.5"/>
<polygon fill="grey" stroke="grey" stroke-width="2" points="586.6,-37.48 576.27,-35.11 582.87,-43.4 586.6,-37.48"/>
</g>
<!-- 16 -->
<g id="node17" class="node">
<title>16</title>
<path fill="none" stroke="#d6d856" stroke-width="2" d="M740.5,-108C740.5,-108 693.5,-108 693.5,-108 687.5,-108 681.5,-102 681.5,-96 681.5,-96 681.5,-84 681.5,-84 681.5,-78 687.5,-72 693.5,-72 693.5,-72 740.5,-72 740.5,-72 746.5,-72 752.5,-78 752.5,-84 752.5,-84 752.5,-96 752.5,-96 752.5,-102 746.5,-108 740.5,-108"/>
<text text-anchor="middle" x="717" y="-87.5" font-family="sans" font-size="10.00">deseq2_QC</text>
</g>
<!-- 15&#45;&gt;16 -->
<g id="edge33" class="edge">
<title>15&#45;&gt;16</title>
<path fill="none" stroke="grey" stroke-width="2" d="M717,-143.7C717,-135.98 717,-126.71 717,-118.11"/>
<polygon fill="grey" stroke="grey" stroke-width="2" points="720.5,-118.1 717,-108.1 713.5,-118.1 720.5,-118.1"/>
</g>
<!-- 17 -->
<g id="node18" class="node">
<title>17</title>
<path fill="none" stroke="#56b9d8" stroke-width="2" d="M851.5,-108C851.5,-108 782.5,-108 782.5,-108 776.5,-108 770.5,-102 770.5,-96 770.5,-96 770.5,-84 770.5,-84 770.5,-78 776.5,-72 782.5,-72 782.5,-72 851.5,-72 851.5,-72 857.5,-72 863.5,-78 863.5,-84 863.5,-84 863.5,-96 863.5,-96 863.5,-102 857.5,-108 851.5,-108"/>
<text text-anchor="middle" x="817" y="-87.5" font-family="sans" font-size="10.00">deseq2_density</text>
</g>
<!-- 15&#45;&gt;17 -->
<g id="edge34" class="edge">
<title>15&#45;&gt;17</title>
<path fill="none" stroke="grey" stroke-width="2" d="M741.46,-143.88C754.3,-134.89 770.2,-123.76 784.09,-114.03"/>
<polygon fill="grey" stroke="grey" stroke-width="2" points="786.26,-116.79 792.44,-108.19 782.24,-111.06 786.26,-116.79"/>
</g>
<!-- 22 -->
<g id="node23" class="node">
<title>22</title>
<path fill="none" stroke="#70d856" stroke-width="2" d="M970.5,-108C970.5,-108 893.5,-108 893.5,-108 887.5,-108 881.5,-102 881.5,-96 881.5,-96 881.5,-84 881.5,-84 881.5,-78 887.5,-72 893.5,-72 893.5,-72 970.5,-72 970.5,-72 976.5,-72 982.5,-78 982.5,-84 982.5,-84 982.5,-96 982.5,-96 982.5,-102 976.5,-108 970.5,-108"/>
<text text-anchor="middle" x="932" y="-87.5" font-family="sans" font-size="10.00">run_glimma_mds</text>
</g>
<!-- 15&#45;&gt;22 -->
<g id="edge39" class="edge">
<title>15&#45;&gt;22</title>
<path fill="none" stroke="grey" stroke-width="2" d="M759.73,-147.09C791.75,-136.66 835.98,-122.26 871.61,-110.66"/>
<polygon fill="grey" stroke="grey" stroke-width="2" points="872.99,-113.89 881.41,-107.47 870.82,-107.24 872.99,-113.89"/>
</g>
<!-- 16&#45;&gt;0 -->
<g id="edge7" class="edge">
<title>16&#45;&gt;0</title>
<path fill="none" stroke="grey" stroke-width="2" d="M681.37,-74.15C653.2,-62.42 614.01,-46.09 585.59,-34.25"/>
<polygon fill="grey" stroke="grey" stroke-width="2" points="586.6,-30.87 576.02,-30.26 583.91,-37.34 586.6,-30.87"/>
</g>
<!-- 17&#45;&gt;0 -->
<g id="edge5" class="edge">
<title>17&#45;&gt;0</title>
<path fill="none" stroke="grey" stroke-width="2" d="M770.3,-74.63C767.16,-73.73 764.04,-72.84 761,-72 700.03,-55.13 628.54,-37.75 586.1,-27.68"/>
<polygon fill="grey" stroke="grey" stroke-width="2" points="586.76,-24.24 576.22,-25.35 585.15,-31.05 586.76,-24.24"/>
</g>
<!-- 18&#45;&gt;0 -->
<g id="edge1" class="edge">
<title>18&#45;&gt;0</title>
<path fill="none" stroke="grey" stroke-width="2" d="M403.04,-73.64C435.63,-61.44 480.81,-44.53 512.23,-32.76"/>
<polygon fill="grey" stroke="grey" stroke-width="2" points="513.78,-35.92 521.92,-29.14 511.33,-29.36 513.78,-35.92"/>
</g>
<!-- 19&#45;&gt;0 -->
<g id="edge3" class="edge">
<title>19&#45;&gt;0</title>
<path fill="none" stroke="grey" stroke-width="2" d="M472.71,-71.88C485.67,-62.89 501.73,-51.76 515.77,-42.03"/>
<polygon fill="grey" stroke="grey" stroke-width="2" points="517.97,-44.76 524.2,-36.19 513.98,-39.01 517.97,-44.76"/>
</g>
<!-- 20&#45;&gt;0 -->
<g id="edge9" class="edge">
<title>20&#45;&gt;0</title>
<path fill="none" stroke="grey" stroke-width="2" d="M527.92,-71.7C531.07,-63.81 534.88,-54.3 538.38,-45.55"/>
<polygon fill="grey" stroke="grey" stroke-width="2" points="541.69,-46.69 542.16,-36.1 535.19,-44.09 541.69,-46.69"/>
</g>
<!-- 21&#45;&gt;0 -->
<g id="edge2" class="edge">
<title>21&#45;&gt;0</title>
<path fill="none" stroke="grey" stroke-width="2" d="M552.25,-143.89C554.05,-133.54 556.09,-120.06 557,-108 558.2,-92.04 558.2,-87.96 557,-72 556.36,-63.52 555.16,-54.34 553.88,-46.04"/>
<polygon fill="grey" stroke="grey" stroke-width="2" points="557.32,-45.41 552.25,-36.11 550.42,-46.55 557.32,-45.41"/>
</g>
<!-- 22&#45;&gt;0 -->
<g id="edge8" class="edge">
<title>22&#45;&gt;0</title>
<path fill="none" stroke="grey" stroke-width="2" d="M881.36,-74.22C878.2,-73.43 875.06,-72.68 872,-72 769.71,-49.19 647.16,-31.74 586.64,-23.76"/>
<polygon fill="grey" stroke="grey" stroke-width="2" points="586.79,-20.25 576.42,-22.43 585.89,-27.2 586.79,-20.25"/>
</g>
</g>
</svg>
