<?xml version="1.0" encoding="UTF-8" standalone="no"?>
<!DOCTYPE svg PUBLIC "-//W3C//DTD SVG 1.1//EN"
 "http://www.w3.org/Graphics/SVG/1.1/DTD/svg11.dtd">
<!-- Generated by graphviz version 2.50.0 (20211209.0339)
 -->
<!-- Title: snakemake_dag Pages: 1 -->
<svg width="969pt" height="548pt"
 viewBox="0.00 0.00 968.50 548.00" xmlns="http://www.w3.org/2000/svg" xmlns:xlink="http://www.w3.org/1999/xlink">
<g id="graph0" class="graph" transform="scale(1 1) rotate(0) translate(4 544)">
<title>snakemake_dag</title>
<polygon fill="white" stroke="transparent" points="-4,4 -4,-544 964.5,-544 964.5,4 -4,4"/>
<!-- 0 -->
<g id="node1" class="node">
<title>0</title>
<path fill="none" stroke="#56d89a" stroke-width="2" d="M497,-36C497,-36 467,-36 467,-36 461,-36 455,-30 455,-24 455,-24 455,-12 455,-12 455,-6 461,0 467,0 467,0 497,0 497,0 503,0 509,-6 509,-12 509,-12 509,-24 509,-24 509,-30 503,-36 497,-36"/>
<text text-anchor="middle" x="482" y="-15.5" font-family="sans" font-size="10.00">all</text>
</g>
<!-- 1 -->
<g id="node2" class="node">
<title>1</title>
<path fill="none" stroke="#56d8c1" stroke-width="2" d="M152,-540C152,-540 122,-540 122,-540 116,-540 110,-534 110,-528 110,-528 110,-516 110,-516 110,-510 116,-504 122,-504 122,-504 152,-504 152,-504 158,-504 164,-510 164,-516 164,-516 164,-528 164,-528 164,-534 158,-540 152,-540"/>
<text text-anchor="middle" x="137" y="-519.5" font-family="sans" font-size="10.00">fastp</text>
</g>
<!-- 1&#45;&gt;0 -->
<g id="edge1" class="edge">
<title>1&#45;&gt;0</title>
<path fill="none" stroke="grey" stroke-width="2" d="M109.93,-508.24C70.01,-487.31 0,-441.69 0,-379 0,-379 0,-379 0,-161 0,-96.72 54.87,-97.21 114,-72 227.29,-23.71 376.12,-17.96 444.59,-18.16"/>
<polygon fill="grey" stroke="grey" stroke-width="2" points="444.84,-21.67 454.87,-18.24 444.89,-14.67 444.84,-21.67"/>
</g>
<!-- 3 -->
<g id="node4" class="node">
<title>3</title>
<path fill="none" stroke="#61d856" stroke-width="2" d="M574,-468C574,-468 544,-468 544,-468 538,-468 532,-462 532,-456 532,-456 532,-444 532,-444 532,-438 538,-432 544,-432 544,-432 574,-432 574,-432 580,-432 586,-438 586,-444 586,-444 586,-456 586,-456 586,-462 580,-468 574,-468"/>
<text text-anchor="middle" x="559" y="-447.5" font-family="sans" font-size="10.00">STAR</text>
</g>
<!-- 1&#45;&gt;3 -->
<g id="edge16" class="edge">
<title>1&#45;&gt;3</title>
<path fill="none" stroke="grey" stroke-width="2" d="M164.04,-516.51C237.05,-504.4 438.28,-471.03 521.85,-457.16"/>
<polygon fill="grey" stroke="grey" stroke-width="2" points="522.62,-460.58 531.91,-455.49 521.47,-453.68 522.62,-460.58"/>
</g>
<!-- 4 -->
<g id="node5" class="node">
<title>4</title>
<path fill="none" stroke="#bed856" stroke-width="2" d="M70,-396C70,-396 40,-396 40,-396 34,-396 28,-390 28,-384 28,-384 28,-372 28,-372 28,-366 34,-360 40,-360 40,-360 70,-360 70,-360 76,-360 82,-366 82,-372 82,-372 82,-384 82,-384 82,-390 76,-396 70,-396"/>
<text text-anchor="middle" x="55" y="-375.5" font-family="sans" font-size="10.00">fastqc</text>
</g>
<!-- 1&#45;&gt;4 -->
<g id="edge17" class="edge">
<title>1&#45;&gt;4</title>
<path fill="none" stroke="grey" stroke-width="2" d="M127.11,-503.87C112.89,-479.24 86.55,-433.64 69.95,-404.88"/>
<polygon fill="grey" stroke="grey" stroke-width="2" points="72.96,-403.1 64.93,-396.19 66.9,-406.6 72.96,-403.1"/>
</g>
<!-- 5 -->
<g id="node6" class="node">
<title>5</title>
<path fill="none" stroke="#56b9d8" stroke-width="2" d="M162,-396C162,-396 112,-396 112,-396 106,-396 100,-390 100,-384 100,-384 100,-372 100,-372 100,-366 106,-360 112,-360 112,-360 162,-360 162,-360 168,-360 174,-366 174,-372 174,-372 174,-384 174,-384 174,-390 168,-396 162,-396"/>
<text text-anchor="middle" x="137" y="-375.5" font-family="sans" font-size="10.00">fastqscreen</text>
</g>
<!-- 1&#45;&gt;5 -->
<g id="edge18" class="edge">
<title>1&#45;&gt;5</title>
<path fill="none" stroke="grey" stroke-width="2" d="M137,-503.87C137,-479.67 137,-435.21 137,-406.39"/>
<polygon fill="grey" stroke="grey" stroke-width="2" points="140.5,-406.19 137,-396.19 133.5,-406.19 140.5,-406.19"/>
</g>
<!-- 8 -->
<g id="node9" class="node">
<title>8</title>
<path fill="none" stroke="#56d88a" stroke-width="2" d="M275,-324C275,-324 245,-324 245,-324 239,-324 233,-318 233,-312 233,-312 233,-300 233,-300 233,-294 239,-288 245,-288 245,-288 275,-288 275,-288 281,-288 287,-294 287,-300 287,-300 287,-312 287,-312 287,-318 281,-324 275,-324"/>
<text text-anchor="middle" x="260" y="-303.5" font-family="sans" font-size="10.00">multiqc</text>
</g>
<!-- 1&#45;&gt;8 -->
<g id="edge22" class="edge">
<title>1&#45;&gt;8</title>
<path fill="none" stroke="grey" stroke-width="2" d="M144.99,-503.6C159.04,-473.55 189.64,-410.29 221,-360 226.8,-350.69 233.74,-340.91 240.14,-332.33"/>
<polygon fill="grey" stroke="grey" stroke-width="2" points="243.05,-334.28 246.3,-324.19 237.47,-330.05 243.05,-334.28"/>
</g>
<!-- 2 -->
<g id="node3" class="node">
<title>2</title>
<path fill="none" stroke="#56d8d0" stroke-width="2" d="M948.5,-252C948.5,-252 887.5,-252 887.5,-252 881.5,-252 875.5,-246 875.5,-240 875.5,-240 875.5,-228 875.5,-228 875.5,-222 881.5,-216 887.5,-216 887.5,-216 948.5,-216 948.5,-216 954.5,-216 960.5,-222 960.5,-228 960.5,-228 960.5,-240 960.5,-240 960.5,-246 954.5,-252 948.5,-252"/>
<text text-anchor="middle" x="918" y="-231.5" font-family="sans" font-size="10.00">star_statistics</text>
</g>
<!-- 2&#45;&gt;0 -->
<g id="edge2" class="edge">
<title>2&#45;&gt;0</title>
<path fill="none" stroke="grey" stroke-width="2" d="M915.2,-215.78C908.75,-182.13 889.49,-107.78 841,-72 790.42,-34.68 600.58,-23.34 519.3,-20.15"/>
<polygon fill="grey" stroke="grey" stroke-width="2" points="519.16,-16.64 509.03,-19.77 518.9,-23.64 519.16,-16.64"/>
</g>
<!-- 3&#45;&gt;2 -->
<g id="edge15" class="edge">
<title>3&#45;&gt;2</title>
<path fill="none" stroke="grey" stroke-width="2" d="M586.11,-449.36C662.48,-449.74 876.62,-446.21 920,-396 952.1,-358.84 939.21,-296.87 927.95,-261.64"/>
<polygon fill="grey" stroke="grey" stroke-width="2" points="931.22,-260.39 924.71,-252.04 924.59,-262.63 931.22,-260.39"/>
</g>
<!-- 6 -->
<g id="node7" class="node">
<title>6</title>
<path fill="none" stroke="#d8cb56" stroke-width="2" d="M844,-324C844,-324 814,-324 814,-324 808,-324 802,-318 802,-312 802,-312 802,-300 802,-300 802,-294 808,-288 814,-288 814,-288 844,-288 844,-288 850,-288 856,-294 856,-300 856,-300 856,-312 856,-312 856,-318 850,-324 844,-324"/>
<text text-anchor="middle" x="829" y="-303.5" font-family="sans" font-size="10.00">bigwig</text>
</g>
<!-- 3&#45;&gt;6 -->
<g id="edge20" class="edge">
<title>3&#45;&gt;6</title>
<path fill="none" stroke="grey" stroke-width="2" d="M586.12,-446.94C644.36,-441.96 778.63,-427.3 810,-396 825.95,-380.09 830.02,-354.29 830.51,-334.55"/>
<polygon fill="grey" stroke="grey" stroke-width="2" points="834.01,-334.3 830.46,-324.32 827.01,-334.33 834.01,-334.3"/>
</g>
<!-- 7 -->
<g id="node8" class="node">
<title>7</title>
<path fill="none" stroke="#56d8a9" stroke-width="2" d="M899,-396C899,-396 869,-396 869,-396 863,-396 857,-390 857,-384 857,-384 857,-372 857,-372 857,-366 863,-360 869,-360 869,-360 899,-360 899,-360 905,-360 911,-366 911,-372 911,-372 911,-384 911,-384 911,-390 905,-396 899,-396"/>
<text text-anchor="middle" x="884" y="-375.5" font-family="sans" font-size="10.00">index</text>
</g>
<!-- 3&#45;&gt;7 -->
<g id="edge21" class="edge">
<title>3&#45;&gt;7</title>
<path fill="none" stroke="grey" stroke-width="2" d="M586.07,-445.86C637.09,-439.52 750.69,-423.42 843,-396 844.43,-395.57 845.88,-395.12 847.34,-394.63"/>
<polygon fill="grey" stroke="grey" stroke-width="2" points="848.73,-397.85 856.94,-391.15 846.35,-391.27 848.73,-397.85"/>
</g>
<!-- 3&#45;&gt;8 -->
<g id="edge29" class="edge">
<title>3&#45;&gt;8</title>
<path fill="none" stroke="grey" stroke-width="2" d="M531.76,-447.99C487.39,-445.22 398.14,-434.84 335,-396 321.36,-387.61 295.85,-355.48 278.4,-332.23"/>
<polygon fill="grey" stroke="grey" stroke-width="2" points="281.15,-330.06 272.38,-324.13 275.54,-334.24 281.15,-330.06"/>
</g>
<!-- 9 -->
<g id="node10" class="node">
<title>9</title>
<path fill="none" stroke="#566bd8" stroke-width="2" d="M427.5,-396C427.5,-396 356.5,-396 356.5,-396 350.5,-396 344.5,-390 344.5,-384 344.5,-384 344.5,-372 344.5,-372 344.5,-366 350.5,-360 356.5,-360 356.5,-360 427.5,-360 427.5,-360 433.5,-360 439.5,-366 439.5,-372 439.5,-372 439.5,-384 439.5,-384 439.5,-390 433.5,-396 427.5,-396"/>
<text text-anchor="middle" x="392" y="-375.5" font-family="sans" font-size="10.00">insertion_profile</text>
</g>
<!-- 3&#45;&gt;9 -->
<g id="edge30" class="edge">
<title>3&#45;&gt;9</title>
<path fill="none" stroke="grey" stroke-width="2" d="M531.8,-437.6C507.53,-427.42 471.38,-412.27 441.93,-399.93"/>
<polygon fill="grey" stroke="grey" stroke-width="2" points="443.2,-396.66 432.62,-396.03 440.49,-403.12 443.2,-396.66"/>
</g>
<!-- 10 -->
<g id="node11" class="node">
<title>10</title>
<path fill="none" stroke="#56d873" stroke-width="2" d="M536.5,-396C536.5,-396 469.5,-396 469.5,-396 463.5,-396 457.5,-390 457.5,-384 457.5,-384 457.5,-372 457.5,-372 457.5,-366 463.5,-360 469.5,-360 469.5,-360 536.5,-360 536.5,-360 542.5,-360 548.5,-366 548.5,-372 548.5,-372 548.5,-384 548.5,-384 548.5,-390 542.5,-396 536.5,-396"/>
<text text-anchor="middle" x="503" y="-375.5" font-family="sans" font-size="10.00">clipping_profile</text>
</g>
<!-- 3&#45;&gt;10 -->
<g id="edge31" class="edge">
<title>3&#45;&gt;10</title>
<path fill="none" stroke="grey" stroke-width="2" d="M545.16,-431.7C538.51,-423.39 530.42,-413.28 523.11,-404.14"/>
<polygon fill="grey" stroke="grey" stroke-width="2" points="525.66,-401.73 516.68,-396.1 520.2,-406.1 525.66,-401.73"/>
</g>
<!-- 11 -->
<g id="node12" class="node">
<title>11</title>
<path fill="none" stroke="#d8a456" stroke-width="2" d="M653.5,-396C653.5,-396 578.5,-396 578.5,-396 572.5,-396 566.5,-390 566.5,-384 566.5,-384 566.5,-372 566.5,-372 566.5,-366 572.5,-360 578.5,-360 578.5,-360 653.5,-360 653.5,-360 659.5,-360 665.5,-366 665.5,-372 665.5,-372 665.5,-384 665.5,-384 665.5,-390 659.5,-396 653.5,-396"/>
<text text-anchor="middle" x="616" y="-375.5" font-family="sans" font-size="10.00">read_distribution</text>
</g>
<!-- 3&#45;&gt;11 -->
<g id="edge32" class="edge">
<title>3&#45;&gt;11</title>
<path fill="none" stroke="grey" stroke-width="2" d="M573.09,-431.7C579.92,-423.3 588.26,-413.07 595.76,-403.86"/>
<polygon fill="grey" stroke="grey" stroke-width="2" points="598.47,-406.07 602.07,-396.1 593.04,-401.65 598.47,-406.07"/>
</g>
<!-- 12 -->
<g id="node13" class="node">
<title>12</title>
<path fill="none" stroke="#d8b456" stroke-width="2" d="M276,-396C276,-396 242,-396 242,-396 236,-396 230,-390 230,-384 230,-384 230,-372 230,-372 230,-366 236,-360 242,-360 242,-360 276,-360 276,-360 282,-360 288,-366 288,-372 288,-372 288,-384 288,-384 288,-390 282,-396 276,-396"/>
<text text-anchor="middle" x="259" y="-375.5" font-family="sans" font-size="10.00">read_GC</text>
</g>
<!-- 3&#45;&gt;12 -->
<g id="edge33" class="edge">
<title>3&#45;&gt;12</title>
<path fill="none" stroke="grey" stroke-width="2" d="M531.98,-445.01C484.74,-437.68 384.29,-420.55 302,-396 300.75,-395.63 299.48,-395.23 298.2,-394.82"/>
<polygon fill="grey" stroke="grey" stroke-width="2" points="298.97,-391.38 288.37,-391.39 296.66,-397.99 298.97,-391.38"/>
</g>
<!-- 14 -->
<g id="node15" class="node">
<title>14</title>
<path fill="none" stroke="#d6d856" stroke-width="2" d="M788.5,-396C788.5,-396 695.5,-396 695.5,-396 689.5,-396 683.5,-390 683.5,-384 683.5,-384 683.5,-372 683.5,-372 683.5,-366 689.5,-360 695.5,-360 695.5,-360 788.5,-360 788.5,-360 794.5,-360 800.5,-366 800.5,-372 800.5,-372 800.5,-384 800.5,-384 800.5,-390 794.5,-396 788.5,-396"/>
<text text-anchor="middle" x="742" y="-375.5" font-family="sans" font-size="10.00">compile_star_counts</text>
</g>
<!-- 3&#45;&gt;14 -->
<g id="edge35" class="edge">
<title>3&#45;&gt;14</title>
<path fill="none" stroke="grey" stroke-width="2" d="M586,-438.67C612.7,-428.46 654.29,-412.55 687.82,-399.72"/>
<polygon fill="grey" stroke="grey" stroke-width="2" points="689.4,-402.87 697.49,-396.02 686.9,-396.33 689.4,-402.87"/>
</g>
<!-- 4&#45;&gt;0 -->
<g id="edge14" class="edge">
<title>4&#45;&gt;0</title>
<path fill="none" stroke="grey" stroke-width="2" d="M62.69,-359.91C73.79,-333.62 93,-281.45 93,-235 93,-235 93,-235 93,-161 93,-104.74 133.04,-97.86 183,-72 268.95,-27.51 385.38,-19.58 444.38,-18.64"/>
<polygon fill="grey" stroke="grey" stroke-width="2" points="444.75,-22.14 454.71,-18.54 444.68,-15.14 444.75,-22.14"/>
</g>
<!-- 4&#45;&gt;8 -->
<g id="edge28" class="edge">
<title>4&#45;&gt;8</title>
<path fill="none" stroke="grey" stroke-width="2" d="M82.35,-363.61C85.25,-362.34 88.17,-361.11 91,-360 135.7,-342.53 188.72,-326.66 223.3,-316.93"/>
<polygon fill="grey" stroke="grey" stroke-width="2" points="224.28,-320.29 232.97,-314.24 222.4,-313.55 224.28,-320.29"/>
</g>
<!-- 5&#45;&gt;0 -->
<g id="edge8" class="edge">
<title>5&#45;&gt;0</title>
<path fill="none" stroke="grey" stroke-width="2" d="M143.68,-359.81C153.32,-333.4 170,-281.06 170,-235 170,-235 170,-235 170,-161 170,-41.56 361.77,-22.12 444.62,-19.29"/>
<polygon fill="grey" stroke="grey" stroke-width="2" points="444.96,-22.79 454.86,-19.01 444.77,-15.79 444.96,-22.79"/>
</g>
<!-- 5&#45;&gt;8 -->
<g id="edge24" class="edge">
<title>5&#45;&gt;8</title>
<path fill="none" stroke="grey" stroke-width="2" d="M167.09,-359.88C184.17,-350.16 205.67,-337.92 223.68,-327.67"/>
<polygon fill="grey" stroke="grey" stroke-width="2" points="225.78,-330.5 232.74,-322.51 222.32,-324.42 225.78,-330.5"/>
</g>
<!-- 6&#45;&gt;0 -->
<g id="edge11" class="edge">
<title>6&#45;&gt;0</title>
<path fill="none" stroke="grey" stroke-width="2" d="M830.02,-287.9C831.64,-242.58 828.82,-119.64 755,-72 716.48,-47.14 584.85,-29.99 519.47,-22.8"/>
<polygon fill="grey" stroke="grey" stroke-width="2" points="519.51,-19.29 509.2,-21.69 518.76,-26.24 519.51,-19.29"/>
</g>
<!-- 7&#45;&gt;6 -->
<g id="edge19" class="edge">
<title>7&#45;&gt;6</title>
<path fill="none" stroke="grey" stroke-width="2" d="M870.4,-359.7C863.88,-351.39 855.93,-341.28 848.75,-332.14"/>
<polygon fill="grey" stroke="grey" stroke-width="2" points="851.37,-329.81 842.44,-324.1 845.87,-334.13 851.37,-329.81"/>
</g>
<!-- 8&#45;&gt;0 -->
<g id="edge13" class="edge">
<title>8&#45;&gt;0</title>
<path fill="none" stroke="grey" stroke-width="2" d="M255.44,-287.91C245.31,-245.72 225.76,-135.41 279,-72 300.13,-46.83 392.35,-30.81 444.93,-23.54"/>
<polygon fill="grey" stroke="grey" stroke-width="2" points="445.44,-27.01 454.89,-22.21 444.51,-20.07 445.44,-27.01"/>
</g>
<!-- 9&#45;&gt;8 -->
<g id="edge27" class="edge">
<title>9&#45;&gt;8</title>
<path fill="none" stroke="grey" stroke-width="2" d="M359.71,-359.88C340.47,-349.67 316.01,-336.7 296.12,-326.16"/>
<polygon fill="grey" stroke="grey" stroke-width="2" points="297.54,-322.94 287.06,-321.35 294.26,-329.13 297.54,-322.94"/>
</g>
<!-- 10&#45;&gt;8 -->
<g id="edge25" class="edge">
<title>10&#45;&gt;8</title>
<path fill="none" stroke="grey" stroke-width="2" d="M457.41,-362.81C454.23,-361.85 451.07,-360.91 448,-360 395.83,-344.59 335.22,-327.68 297.24,-317.2"/>
<polygon fill="grey" stroke="grey" stroke-width="2" points="297.72,-313.7 287.15,-314.42 295.86,-320.45 297.72,-313.7"/>
</g>
<!-- 11&#45;&gt;8 -->
<g id="edge23" class="edge">
<title>11&#45;&gt;8</title>
<path fill="none" stroke="grey" stroke-width="2" d="M566.42,-362.08C563.58,-361.35 560.76,-360.65 558,-360 465.05,-338.18 353.93,-320.64 297.25,-312.29"/>
<polygon fill="grey" stroke="grey" stroke-width="2" points="297.72,-308.82 287.32,-310.84 296.71,-315.75 297.72,-308.82"/>
</g>
<!-- 12&#45;&gt;8 -->
<g id="edge26" class="edge">
<title>12&#45;&gt;8</title>
<path fill="none" stroke="grey" stroke-width="2" d="M259.25,-359.7C259.36,-351.98 259.49,-342.71 259.61,-334.11"/>
<polygon fill="grey" stroke="grey" stroke-width="2" points="263.11,-334.15 259.76,-324.1 256.11,-334.05 263.11,-334.15"/>
</g>
<!-- 13 -->
<g id="node14" class="node">
<title>13</title>
<path fill="none" stroke="#56d863" stroke-width="2" d="M678.5,-324C678.5,-324 625.5,-324 625.5,-324 619.5,-324 613.5,-318 613.5,-312 613.5,-312 613.5,-300 613.5,-300 613.5,-294 619.5,-288 625.5,-288 625.5,-288 678.5,-288 678.5,-288 684.5,-288 690.5,-294 690.5,-300 690.5,-300 690.5,-312 690.5,-312 690.5,-318 684.5,-324 678.5,-324"/>
<text text-anchor="middle" x="652" y="-303.5" font-family="sans" font-size="10.00">filter_counts</text>
</g>
<!-- 13&#45;&gt;0 -->
<g id="edge7" class="edge">
<title>13&#45;&gt;0</title>
<path fill="none" stroke="grey" stroke-width="2" d="M644.86,-287.68C634.98,-263.62 616.71,-218.67 602,-180 583.85,-132.3 594.65,-112.03 563,-72 551.15,-57.01 533.85,-44.88 518.28,-36.03"/>
<polygon fill="grey" stroke="grey" stroke-width="2" points="519.82,-32.89 509.36,-31.2 516.49,-39.04 519.82,-32.89"/>
</g>
<!-- 15 -->
<g id="node16" class="node">
<title>15</title>
<path fill="none" stroke="#70d856" stroke-width="2" d="M681.5,-180C681.5,-180 622.5,-180 622.5,-180 616.5,-180 610.5,-174 610.5,-168 610.5,-168 610.5,-156 610.5,-156 610.5,-150 616.5,-144 622.5,-144 622.5,-144 681.5,-144 681.5,-144 687.5,-144 693.5,-150 693.5,-156 693.5,-156 693.5,-168 693.5,-168 693.5,-174 687.5,-180 681.5,-180"/>
<text text-anchor="middle" x="652" y="-159.5" font-family="sans" font-size="10.00">deseq2_norm</text>
</g>
<!-- 13&#45;&gt;15 -->
<g id="edge36" class="edge">
<title>13&#45;&gt;15</title>
<path fill="none" stroke="grey" stroke-width="2" d="M652,-287.87C652,-263.67 652,-219.21 652,-190.39"/>
<polygon fill="grey" stroke="grey" stroke-width="2" points="655.5,-190.19 652,-180.19 648.5,-190.19 655.5,-190.19"/>
</g>
<!-- 17 -->
<g id="node18" class="node">
<title>17</title>
<path fill="none" stroke="#5692d8" stroke-width="2" d="M784.5,-180C784.5,-180 723.5,-180 723.5,-180 717.5,-180 711.5,-174 711.5,-168 711.5,-168 711.5,-156 711.5,-156 711.5,-150 717.5,-144 723.5,-144 723.5,-144 784.5,-144 784.5,-144 790.5,-144 796.5,-150 796.5,-156 796.5,-156 796.5,-168 796.5,-168 796.5,-174 790.5,-180 784.5,-180"/>
<text text-anchor="middle" x="754" y="-159.5" font-family="sans" font-size="10.00">deseq2_group</text>
</g>
<!-- 13&#45;&gt;17 -->
<g id="edge38" class="edge">
<title>13&#45;&gt;17</title>
<path fill="none" stroke="grey" stroke-width="2" d="M664.3,-287.87C682.07,-263.14 715.04,-217.24 735.67,-188.51"/>
<polygon fill="grey" stroke="grey" stroke-width="2" points="738.66,-190.35 741.65,-180.19 732.98,-186.27 738.66,-190.35"/>
</g>
<!-- 19 -->
<g id="node20" class="node">
<title>19</title>
<path fill="none" stroke="#d86656" stroke-width="2" d="M502.5,-252C502.5,-252 453.5,-252 453.5,-252 447.5,-252 441.5,-246 441.5,-240 441.5,-240 441.5,-228 441.5,-228 441.5,-222 447.5,-216 453.5,-216 453.5,-216 502.5,-216 502.5,-216 508.5,-216 514.5,-222 514.5,-228 514.5,-228 514.5,-240 514.5,-240 514.5,-246 508.5,-252 502.5,-252"/>
<text text-anchor="middle" x="478" y="-231.5" font-family="sans" font-size="10.00">deseq2_init</text>
</g>
<!-- 13&#45;&gt;19 -->
<g id="edge40" class="edge">
<title>13&#45;&gt;19</title>
<path fill="none" stroke="grey" stroke-width="2" d="M613.38,-289.46C587.05,-278.87 552.05,-264.79 524.24,-253.6"/>
<polygon fill="grey" stroke="grey" stroke-width="2" points="525.31,-250.26 514.72,-249.77 522.69,-256.75 525.31,-250.26"/>
</g>
<!-- 14&#45;&gt;13 -->
<g id="edge34" class="edge">
<title>14&#45;&gt;13</title>
<path fill="none" stroke="grey" stroke-width="2" d="M719.75,-359.7C708.42,-350.88 694.47,-340.03 682.18,-330.47"/>
<polygon fill="grey" stroke="grey" stroke-width="2" points="684.03,-327.48 673.99,-324.1 679.74,-333.01 684.03,-327.48"/>
</g>
<!-- 15&#45;&gt;0 -->
<g id="edge3" class="edge">
<title>15&#45;&gt;0</title>
<path fill="none" stroke="grey" stroke-width="2" d="M644.86,-143.87C635.94,-124.27 619.01,-92.27 596,-72 573.69,-52.35 542.84,-38.6 518.86,-30.04"/>
<polygon fill="grey" stroke="grey" stroke-width="2" points="519.97,-26.72 509.38,-26.8 517.71,-33.35 519.97,-26.72"/>
</g>
<!-- 16 -->
<g id="node17" class="node">
<title>16</title>
<path fill="none" stroke="#97d856" stroke-width="2" d="M711.5,-108C711.5,-108 664.5,-108 664.5,-108 658.5,-108 652.5,-102 652.5,-96 652.5,-96 652.5,-84 652.5,-84 652.5,-78 658.5,-72 664.5,-72 664.5,-72 711.5,-72 711.5,-72 717.5,-72 723.5,-78 723.5,-84 723.5,-84 723.5,-96 723.5,-96 723.5,-102 717.5,-108 711.5,-108"/>
<text text-anchor="middle" x="688" y="-87.5" font-family="sans" font-size="10.00">deseq2_QC</text>
</g>
<!-- 16&#45;&gt;0 -->
<g id="edge4" class="edge">
<title>16&#45;&gt;0</title>
<path fill="none" stroke="grey" stroke-width="2" d="M652.12,-76.81C614.76,-64.11 556.55,-44.33 518.84,-31.52"/>
<polygon fill="grey" stroke="grey" stroke-width="2" points="519.85,-28.17 509.26,-28.26 517.6,-34.79 519.85,-28.17"/>
</g>
<!-- 17&#45;&gt;0 -->
<g id="edge10" class="edge">
<title>17&#45;&gt;0</title>
<path fill="none" stroke="grey" stroke-width="2" d="M755.02,-143.64C755.2,-123.53 752.19,-90.75 733,-72 703.03,-42.73 581.57,-27.86 519.26,-22.03"/>
<polygon fill="grey" stroke="grey" stroke-width="2" points="519.35,-18.52 509.07,-21.11 518.72,-25.49 519.35,-18.52"/>
</g>
<!-- 17&#45;&gt;16 -->
<g id="edge37" class="edge">
<title>17&#45;&gt;16</title>
<path fill="none" stroke="grey" stroke-width="2" d="M737.69,-143.7C729.69,-135.22 719.93,-124.86 711.18,-115.58"/>
<polygon fill="grey" stroke="grey" stroke-width="2" points="713.53,-112.98 704.13,-108.1 708.44,-117.78 713.53,-112.98"/>
</g>
<!-- 18 -->
<g id="node19" class="node">
<title>18</title>
<path fill="none" stroke="#d87d56" stroke-width="2" d="M476,-180C476,-180 402,-180 402,-180 396,-180 390,-174 390,-168 390,-168 390,-156 390,-156 390,-150 396,-144 402,-144 402,-144 476,-144 476,-144 482,-144 488,-150 488,-156 488,-156 488,-168 488,-168 488,-174 482,-180 476,-180"/>
<text text-anchor="middle" x="439" y="-159.5" font-family="sans" font-size="10.00">deseq2_pairwise</text>
</g>
<!-- 18&#45;&gt;0 -->
<g id="edge5" class="edge">
<title>18&#45;&gt;0</title>
<path fill="none" stroke="grey" stroke-width="2" d="M416.4,-143.96C405.94,-134.63 394.6,-122.11 389,-108 383.09,-93.13 380.96,-85.83 389,-72 401.09,-51.19 424.74,-37.88 445.17,-29.79"/>
<polygon fill="grey" stroke="grey" stroke-width="2" points="446.39,-33.07 454.57,-26.34 443.98,-26.5 446.39,-33.07"/>
</g>
<!-- 20 -->
<g id="node21" class="node">
<title>20</title>
<path fill="none" stroke="#56a2d8" stroke-width="2" d="M468,-108C468,-108 410,-108 410,-108 404,-108 398,-102 398,-96 398,-96 398,-84 398,-84 398,-78 404,-72 410,-72 410,-72 468,-72 468,-72 474,-72 480,-78 480,-84 480,-84 480,-96 480,-96 480,-102 474,-108 468,-108"/>
<text text-anchor="middle" x="439" y="-87.5" font-family="sans" font-size="10.00">deseq2_qplot</text>
</g>
<!-- 18&#45;&gt;20 -->
<g id="edge41" class="edge">
<title>18&#45;&gt;20</title>
<path fill="none" stroke="grey" stroke-width="2" d="M439,-143.7C439,-135.98 439,-126.71 439,-118.11"/>
<polygon fill="grey" stroke="grey" stroke-width="2" points="442.5,-118.1 439,-108.1 435.5,-118.1 442.5,-118.1"/>
</g>
<!-- 21 -->
<g id="node22" class="node">
<title>21</title>
<path fill="none" stroke="#567bd8" stroke-width="2" d="M541.5,-108C541.5,-108 510.5,-108 510.5,-108 504.5,-108 498.5,-102 498.5,-96 498.5,-96 498.5,-84 498.5,-84 498.5,-78 504.5,-72 510.5,-72 510.5,-72 541.5,-72 541.5,-72 547.5,-72 553.5,-78 553.5,-84 553.5,-84 553.5,-96 553.5,-96 553.5,-102 547.5,-108 541.5,-108"/>
<text text-anchor="middle" x="526" y="-87.5" font-family="sans" font-size="10.00">volcano</text>
</g>
<!-- 18&#45;&gt;21 -->
<g id="edge42" class="edge">
<title>18&#45;&gt;21</title>
<path fill="none" stroke="grey" stroke-width="2" d="M460.51,-143.7C471.46,-134.88 484.95,-124.03 496.82,-114.47"/>
<polygon fill="grey" stroke="grey" stroke-width="2" points="499.14,-117.1 504.74,-108.1 494.76,-111.65 499.14,-117.1"/>
</g>
<!-- 22 -->
<g id="node23" class="node">
<title>22</title>
<path fill="none" stroke="#88d856" stroke-width="2" d="M330,-108C330,-108 300,-108 300,-108 294,-108 288,-102 288,-96 288,-96 288,-84 288,-84 288,-78 294,-72 300,-72 300,-72 330,-72 330,-72 336,-72 342,-78 342,-84 342,-84 342,-96 342,-96 342,-102 336,-108 330,-108"/>
<text text-anchor="middle" x="315" y="-87.5" font-family="sans" font-size="10.00">GO</text>
</g>
<!-- 18&#45;&gt;22 -->
<g id="edge43" class="edge">
<title>18&#45;&gt;22</title>
<path fill="none" stroke="grey" stroke-width="2" d="M408.67,-143.88C391.25,-134.04 369.27,-121.64 350.98,-111.31"/>
<polygon fill="grey" stroke="grey" stroke-width="2" points="352.5,-108.15 342.07,-106.28 349.05,-114.24 352.5,-108.15"/>
</g>
<!-- 19&#45;&gt;18 -->
<g id="edge39" class="edge">
<title>19&#45;&gt;18</title>
<path fill="none" stroke="grey" stroke-width="2" d="M468.36,-215.7C463.87,-207.64 458.44,-197.89 453.48,-188.98"/>
<polygon fill="grey" stroke="grey" stroke-width="2" points="456.45,-187.14 448.53,-180.1 450.34,-190.54 456.45,-187.14"/>
</g>
<!-- 20&#45;&gt;0 -->
<g id="edge9" class="edge">
<title>20&#45;&gt;0</title>
<path fill="none" stroke="grey" stroke-width="2" d="M449.63,-71.7C454.63,-63.56 460.69,-53.69 466.21,-44.7"/>
<polygon fill="grey" stroke="grey" stroke-width="2" points="469.24,-46.46 471.49,-36.1 463.28,-42.79 469.24,-46.46"/>
</g>
<!-- 21&#45;&gt;0 -->
<g id="edge12" class="edge">
<title>21&#45;&gt;0</title>
<path fill="none" stroke="grey" stroke-width="2" d="M515.12,-71.7C510.01,-63.56 503.8,-53.69 498.16,-44.7"/>
<polygon fill="grey" stroke="grey" stroke-width="2" points="501.04,-42.71 492.75,-36.1 495.11,-46.43 501.04,-42.71"/>
</g>
<!-- 22&#45;&gt;0 -->
<g id="edge6" class="edge">
<title>22&#45;&gt;0</title>
<path fill="none" stroke="grey" stroke-width="2" d="M342.2,-77.6C370.23,-65.85 414.08,-47.47 445.19,-34.43"/>
<polygon fill="grey" stroke="grey" stroke-width="2" points="446.94,-37.49 454.81,-30.4 444.23,-31.04 446.94,-37.49"/>
</g>
</g>
</svg>
